<?xml version="1.0" standalone="no"?><!DOCTYPE svg PUBLIC "-//W3C//DTD SVG 1.1//EN" "http://www.w3.org/Graphics/SVG/1.1/DTD/svg11.dtd"><svg t="1625210308729" class="icon" viewBox="0 0 1024 1024" version="1.1" xmlns="http://www.w3.org/2000/svg" p-id="8430" xmlns:xlink="http://www.w3.org/1999/xlink" width="200" height="200"><defs><style type="text/css"></style></defs><path d="M837.817765 93.741608v198.729368c54.643476-3.108153 54.81297-54.086894 54.81297-99.364684s-0.169494-96.254241-54.81297-99.364684zM529.611338 566.886264c-59.503829 11.376709-86.109799 44.982321-86.109799 84.694296 0 46.656646 36.771026 84.824851 120.384224 88.473552 27.462601 51.629232 76.595233 87.820772 164.658794 87.820772 199.418796 0 199.418796-185.547778 199.418796-315.874884H529.109727c0 17.483072 0.018324 35.987689 0.501611 54.886264z m262.665235 174.899435c33.605612-49.636533 45.912247-106.291031 45.781691-165.627657-0.054971-27.945888 43.269057-27.945888 43.324028 0 0.130556 66.393529-14.111517 131.964784-51.702527 187.503829-15.563668 22.993916-53.11574 1.339918-37.403192-21.876172z m-297.480209-89.275213c-0.391668-21.541765 4.189249-38.353733 36.622146-46.805526 2.308782 32.506191 6.962995 65.032997 16.253095 94.822704-46.899435-6.126977-52.428602-23.106148-52.875241-48.017178zM316.509341 1014.689285H977.957197c29.899649 0 46.042803-30.625725 46.042803-59.467182v-42.169637c0-31.837377-18.506907-65.907952-46.024479-65.926276H367.652995c-21.596736 0-39.079808-5.863575-51.143654-16.420299v183.983394z" p-id="8431"></path><path d="M621.289242 9.308425H51.310858C21.578412 9.308425 0 30.868513 0 60.545988v894.678405c0 28.726934 20.609548 59.467182 51.310858 59.467182h246.579343V503.417651c0-38.800372 28.690287-65.889629 69.762794-65.889629h253.636247c30.236347 0 48.965428-31.464033 48.965428-60.621573V60.564312c0-5.009233-0.689428-9.606184-1.694939-14.019899-5.137499-22.693866-22.751127-37.235989-47.270489-37.235988zM257.507122 238.871949a16.743254 16.743254 0 0 1-3.165414-0.279436l-14.633741-2.512633c-12.622718 27.890917-40.550283 47.364398-73.150383 47.364397-44.405125 0-80.411137-35.989979-80.411138-80.392813s35.989979-80.392814 80.411138-80.392814c43.193472 0 78.141293 34.127836 80.040083 76.838022l14.056545 2.402691a18.603106 18.603106 0 0 1 15.192614 21.505118 18.644335 18.644335 0 0 1-18.339704 15.467468zM734.394388 363.053754h42.467397l5.994131-18.616849 5.996421-18.61914h30.346289V65.163553h-130.327106v260.654212h28.449788l8.545702 18.61914z" p-id="8432"></path></svg>