<?xml version="1.0" standalone="no"?><!DOCTYPE svg PUBLIC "-//W3C//DTD SVG 1.1//EN" "http://www.w3.org/Graphics/SVG/1.1/DTD/svg11.dtd"><svg t="1625210264197" class="icon" viewBox="0 0 1024 1024" version="1.1" xmlns="http://www.w3.org/2000/svg" p-id="3561" xmlns:xlink="http://www.w3.org/1999/xlink" width="200" height="200"><defs><style type="text/css"></style></defs><path d="M261.9 955.1H101.1V283.4L511.3 65.2l410.2 218.2v227.5h-23.9V297.8L511.3 92.2 125 297.8v633.4h136.8v23.9z m659.7 0H367v-23.9h530.6V628h23.9v327.1z m0 0" fill="" p-id="3562"></path><path d="M505.4 206.1l11.8 20.8L224 393.2l-11.8-20.8 293.2-166.3zM897.6 826V639.9m24 210M728.4 839.2H372V573.3h356.4V665H659v-20.5h48.9v-50.7H392.4v224.9h315.4v-67h20.5v87.5z m0 0" fill="" p-id="3563"></path><path d="M382.2 644.5h335.9V665H382.2z" fill="" p-id="3564"></path><path d="M718.1 761.9h-10.2V665h-49v-20.5h69.5v95c24.4-8.7 45.2-46.7 45.2-76.8 0-18.6-6.7-35.9-55.4-35.9v-20.5c22.9 0 39.3 3.3 51.6 10.4 16.1 9.3 24.3 24.8 24.3 45.9 0 20.8-7.9 44.8-20.9 64.2-15.3 22.7-34.8 35.1-55.1 35.1zM457.5 476.4c-19.5-23.2-19.5-46.8 0-70.1l15.7 13.1c-13.1 15.5-13.1 28.3 0 43.7l-15.7 13.3z m0 0" fill="" p-id="3565"></path><path d="M474.1 532l-17.5-10.7c9.6-15.8 9.6-30.5 0-46.3l17.5-10.7c13.4 22.3 13.4 45.6 0 67.7z m0 0M623.7 476.4c-19.5-23.2-19.5-46.8 0-70.1l15.7 13.1c-13.1 15.5-13.1 28.3 0 43.7l-15.7 13.3z m0 0" fill="" p-id="3566"></path><path d="M640.3 532l-17.5-10.7c9.6-15.8 9.6-30.5 0-46.3l17.5-10.7c13.5 22.3 13.5 45.6 0 67.7z m0 0M540.6 476.4c-19.5-23.2-19.5-46.8 0-70.1l15.7 13.1c-13.1 15.5-13.1 28.3 0 43.7l-15.7 13.3z m0 0" fill="" p-id="3567"></path><path d="M557.2 532l-17.5-10.7c9.6-15.8 9.6-30.5 0-46.3l17.5-10.7c13.4 22.3 13.4 45.6 0 67.7z m0 0" fill="" p-id="3568"></path></svg>