<?xml version="1.0" standalone="no"?><!DOCTYPE svg PUBLIC "-//W3C//DTD SVG 1.1//EN" "http://www.w3.org/Graphics/SVG/1.1/DTD/svg11.dtd"><svg t="1625210204204" class="icon" viewBox="0 0 1024 1024" version="1.1" xmlns="http://www.w3.org/2000/svg" p-id="1167" xmlns:xlink="http://www.w3.org/1999/xlink" width="200" height="200"><defs><style type="text/css"></style></defs><path d="M195.409037 681.348414m35.310345 0l141.241379 0q35.310345 0 35.310345 35.310345l0 105.931034q0 35.310345-35.310345 35.310345l-141.241379 0q-35.310345 0-35.310345-35.310345l0-105.931034q0-35.310345 35.310345-35.310345Z" p-id="1168"></path><path d="M195.409037 469.486345m35.310345 0l141.241379 0q35.310345 0 35.310345 35.310345l0 105.931034q0 35.310345-35.310345 35.310345l-141.241379 0q-35.310345 0-35.310345-35.310345l0-105.931034q0-35.310345 35.310345-35.310345Z" p-id="1169"></path><path d="M935.725727 1024H88.277451a71.397517 71.397517 0 0 1-70.62069-71.997793v-858.712276a94.737655 94.737655 0 0 1 25.882483-66.136276 79.412966 79.412966 0 0 1 58.509242-22.633931 127.858759 127.858759 0 0 1 21.53931 1.942069l423.724138 115.923862V35.310345a35.310345 35.310345 0 0 1 35.310345-35.310345h176.551724a35.310345 35.310345 0 0 1 35.310345 35.310345v154.729931l156.389517 42.760827A70.62069 70.62069 0 0 1 1006.346417 301.832828V423.724138h-105.931035v-35.310345a35.310345 35.310345 0 0 0-35.310345-35.310345H158.898141a35.310345 35.310345 0 0 0-35.310345 35.310345v494.344828a35.310345 35.310345 0 0 0 35.310345 35.310345h847.448276v33.933241A71.397517 71.397517 0 0 1 935.725727 1024z" p-id="1170"></path><path d="M706.914692 870.823724l-149.292138-170.97269a45.903448 45.903448 0 0 1 0-57.873655l149.292138-171.008a35.310345 35.310345 0 0 1 61.122207 28.672V564.965517h147.915035a54.272 54.272 0 0 1 55.084138 52.965517v106.319449a54.272 54.272 0 0 1-55.084138 52.965517h-147.915035v64.935724a35.310345 35.310345 0 0 1-61.122207 28.672z" p-id="1171"></path></svg>