<?xml version="1.0" standalone="no"?><!DOCTYPE svg PUBLIC "-//W3C//DTD SVG 1.1//EN" "http://www.w3.org/Graphics/SVG/1.1/DTD/svg11.dtd"><svg t="1625210625068" class="icon" viewBox="0 0 1024 1024" version="1.1" xmlns="http://www.w3.org/2000/svg" p-id="11315" xmlns:xlink="http://www.w3.org/1999/xlink" width="200" height="200"><defs><style type="text/css"></style></defs><path d="M431.872 717.056L105.216 488.448v147.4L431.872 864.41z" p-id="11316"></path><path d="M997.432 357.786c0.2-5.12-1.387-9.728-5.068-13.466-1.178-3.533-3.124-6.81-6.298-9.062L519.27 8.704c-3.118-2.202-6.81-3.38-10.7-3.482L243.456 0.052c-8.397-0.154-15.974 5.068-18.586 12.953-2.61 7.833 0.256 16.435 7.117 21.248l121.14 84.685-57.857 41.267a21.285 21.285 0 0 0-6.041 2.713L34.662 344.013c-5.017 3.533-7.884 9.318-7.833 15.462v0.205l-1.331 0.666v318.156l8.14 15.36 466.79 326.508 0.769-0.353c0.819 0.66 1.587 1.28 2.509 1.838a19.823 19.823 0 0 0 8.806 2.048 18.81 18.81 0 0 0 11.008-3.533l466.79-326.456a18.79 18.79 0 0 0 8.09-15.463V360.346c0-0.973-0.87-1.639-0.968-2.56zM317.44 47.974h178.33L901.12 320H722.79L317.44 47.974zM479.59 960L74.24 672V399.974l405.35 288V960z m32.922-313.242L100.695 365.225 308.91 215.89 737.28 499.2 512.512 646.758z m437.248 9.216l-421.53 288V704l421.53-288v239.974zM814.239 448l-0.031-0.02-44.498 30.315-426.67-285.332 55.04-41.283 300.303 199.86 236.447-4.23s10.665 5.12 17.546 15.683L814.24 448z" p-id="11317"></path></svg>