<?xml version="1.0" standalone="no"?><!DOCTYPE svg PUBLIC "-//W3C//DTD SVG 1.1//EN" "http://www.w3.org/Graphics/SVG/1.1/DTD/svg11.dtd"><svg t="1625210340297" class="icon" viewBox="0 0 1182 1024" version="1.1" xmlns="http://www.w3.org/2000/svg" p-id="10485" xmlns:xlink="http://www.w3.org/1999/xlink" width="230.859375" height="200"><defs><style type="text/css"></style></defs><path d="M953.465595 1023.95657h-162.697177a87.194997 87.194997 0 0 1-87.194997-86.860917v-260.582748h-224.50206v260.582748a87.194997 87.194997 0 0 1-87.194997 86.860917H229.179187a104.233099 104.233099 0 0 1-104.2331-103.899019V467.712626l467.712626-278.957174 467.712625 278.957174v452.344925a103.899019 103.899019 0 0 1-106.905743 103.899019z m-554.573541-427.622972h384.860674v340.762055a7.015689 7.015689 0 0 0 7.01569 6.681609h162.697177a23.719712 23.719712 0 0 0 23.719712-23.719711v-407.578146L591.322391 281.629817 205.459475 512.479405v407.578146a23.719712 23.719712 0 0 0 23.719712 23.719711h162.697177a7.015689 7.015689 0 0 0 7.01569-6.681609z" p-id="10486"></path><path d="M40.089654 426.954811a39.421493 39.421493 0 0 1-33.408045-19.042585 40.089654 40.089654 0 0 1 13.029137-55.123274L595.331356 0l567.93676 352.788952a40.089654 40.089654 0 0 1-42.094136 66.816089L594.997276 94.210686l-534.528715 326.730677a41.091895 41.091895 0 0 1-20.378907 6.013448z" p-id="10487"></path></svg>